<?xml version="1.0" standalone="no"?>
<!DOCTYPE svg PUBLIC "-//W3C//DTD SVG 20010904//EN"
 "http://www.w3.org/TR/2001/REC-SVG-20010904/DTD/svg10.dtd">
<svg version="1.0" xmlns="http://www.w3.org/2000/svg"
 width="200.000000pt" height="200.000000pt" viewBox="0 0 200.000000 200.000000"
 preserveAspectRatio="xMidYMid meet">

<g transform="translate(0.000000,200.000000) scale(0.100000,-0.100000)"
fill="#000000" stroke="none">
<path d="M1252 1075 c-7 -14 -12 -35 -12 -45 0 -11 -11 -27 -25 -36 -14 -9
-32 -32 -40 -51 -18 -43 -39 -34 -31 12 12 60 -43 56 -73 -5 -21 -42 -37 -36
-33 13 3 37 3 38 -19 27 -15 -9 -18 -14 -9 -20 6 -4 11 -16 10 -26 -4 -38 0
-41 43 -40 23 1 47 4 53 8 6 4 14 4 18 1 11 -11 85 -12 92 -2 3 6 11 6 17 1
16 -12 86 -12 93 -1 3 6 12 5 20 -2 12 -10 19 -8 37 11 20 22 20 22 1 7 -26
-22 -36 -12 -28 28 4 24 2 34 -10 38 -19 8 -66 -29 -66 -53 0 -23 -29 -35 -37
-14 -3 8 -1 27 6 40 8 19 8 24 0 18 -16 -9 -4 86 12 101 8 7 10 -3 6 -39 -3
-28 -1 -43 3 -35 8 14 13 52 11 77 -2 21 -27 13 -39 -13z m-122 -104 c0 -20
-20 -61 -30 -61 -11 0 -14 53 -3 63 10 10 33 8 33 -2z m100 -20 c0 -33 -16
-49 -33 -32 -7 7 -7 18 1 36 16 34 32 32 32 -4z m120 13 c0 -21 -18 -54 -30
-54 -11 0 -13 30 -4 54 8 21 34 21 34 0z"/>
<path d="M726 1050 c-36 -43 -36 -101 0 -129 22 -17 38 -20 95 -18 37 2 71 6
75 10 4 3 12 3 18 -1 6 -3 23 -7 38 -8 29 -2 36 12 30 58 -5 33 -22 27 -22 -6
0 -28 -25 -53 -35 -36 -3 6 -4 23 0 39 12 56 -54 48 -73 -9 -10 -27 -15 -30
-55 -30 -70 0 -96 45 -62 110 24 46 75 52 75 9 0 -10 5 -19 11 -19 6 0 9 12 7
28 -3 23 -8 27 -39 30 -30 3 -41 -2 -63 -28z m184 -79 c0 -20 -20 -61 -30 -61
-11 0 -14 53 -3 63 10 10 33 8 33 -2z"/>
<path d="M1568 1069 c-19 -11 -25 -59 -7 -59 5 0 8 4 5 9 -12 20 7 41 36 41
29 0 30 -2 24 -32 -15 -70 -19 -128 -9 -128 5 0 16 37 24 82 l14 83 38 -3 c22
-2 37 1 37 7 0 14 -139 14 -162 0z"/>
<path d="M1764 1061 c-50 -31 -70 -113 -36 -144 24 -22 41 -21 65 0 18 17 19
17 28 0 14 -24 42 -21 65 6 10 12 12 16 4 10 -8 -7 -23 -13 -33 -13 -18 0 -19
5 -14 60 8 72 -6 79 -23 13 -14 -58 -26 -73 -55 -73 -43 0 -42 81 1 121 16 15
38 23 64 24 55 1 63 15 9 15 -26 0 -57 -8 -75 -19z"/>
<path d="M1482 984 c-24 -17 -29 -53 -10 -72 19 -19 53 -14 74 10 l19 21 -27
-18 c-28 -17 -65 -14 -53 5 3 5 2 10 -3 10 -6 0 -8 9 -5 20 3 11 12 20 20 20
11 0 14 -7 10 -22 -6 -20 -5 -20 11 -5 14 15 15 19 1 32 -13 13 -17 13 -37 -1z"/>
</g>
</svg>
