<?xml version="1.0" standalone="no"?>
<!DOCTYPE svg PUBLIC "-//W3C//DTD SVG 20010904//EN"
 "http://www.w3.org/TR/2001/REC-SVG-20010904/DTD/svg10.dtd">
<svg version="1.0" xmlns="http://www.w3.org/2000/svg"
 width="1280.000000pt" height="1174.000000pt" viewBox="0 0 1280.000000 1174.000000"
 preserveAspectRatio="xMidYMid meet">
<metadata>
Created by potrace 1.15, written by Peter Selinger 2001-2017
</metadata>
<g transform="translate(0.000000,1174.000000) scale(0.100000,-0.100000)"
fill="#cddc39" stroke="none">
<path d="M6388 11708 c-8 -13 -291 -466 -628 -1008 -337 -542 -619 -991 -626
-999 -10 -11 -101 13 -566 149 -304 89 -611 179 -682 201 -72 21 -131 37 -133
35 -2 -2 21 -109 51 -237 53 -223 102 -436 376 -1614 178 -767 226 -969 301
-1290 37 -159 66 -291 64 -293 -4 -4 30 -42 -680 748 -328 366 -610 678 -625
693 l-27 29 -313 -389 c-298 -369 -315 -388 -344 -386 -43 3 -660 62 -1391
132 -335 33 -611 58 -613 56 -3 -3 24 -140 239 -1245 145 -743 143 -730 133
-740 -5 -5 -215 -104 -467 -221 -251 -116 -456 -213 -455 -214 13 -11 2296
-1868 2735 -2224 309 -251 562 -460 562 -466 1 -5 -98 -224 -218 -485 -120
-261 -218 -476 -216 -478 1 -1 441 54 976 123 536 69 1207 155 1492 192 284
36 520 64 523 60 3 -3 -13 -225 -36 -494 -24 -268 -59 -679 -79 -913 l-36
-425 654 -3 c360 -1 656 0 659 2 4 4 -1 123 -28 731 -5 116 -14 318 -20 450
-6 132 -15 328 -20 435 -5 107 -8 196 -7 197 2 2 733 -105 1967 -287 818 -120
963 -141 966 -137 2 2 -12 44 -31 93 -19 49 -101 267 -184 484 -82 217 -152
402 -156 411 -5 13 369 319 1639 1344 905 730 1646 1330 1646 1334 0 4 -211
126 -470 270 -380 214 -470 268 -470 284 0 11 32 219 70 461 39 243 106 664
149 936 43 272 77 497 75 499 -3 3 -435 -33 -1543 -129 -245 -22 -448 -37
-452 -34 -4 2 -132 169 -285 371 -152 203 -280 372 -284 376 -4 5 -290 -297
-635 -670 -345 -373 -647 -698 -671 -722 l-43 -45 19 75 c10 41 39 160 64 264
25 105 68 282 95 395 289 1192 369 1524 412 1700 27 113 92 380 144 595 52
214 93 391 91 392 -2 2 -207 -46 -457 -106 -1003 -242 -993 -240 -1001 -228
-4 7 -272 456 -595 999 -323 543 -591 988 -594 988 -4 0 -13 -10 -21 -22z
m597 -1088 c312 -525 573 -960 579 -966 8 -8 79 5 266 51 712 174 1110 268
1116 262 3 -3 -102 -453 -235 -999 -132 -546 -326 -1348 -431 -1782 -105 -433
-190 -789 -188 -791 2 -1 334 355 738 791 571 618 737 791 746 781 22 -23 523
-688 526 -698 2 -6 265 13 703 51 385 33 806 69 935 80 129 11 252 22 274 24
l39 4 -6 -51 c-3 -29 -54 -351 -112 -717 -58 -366 -121 -762 -140 -880 -26
-167 -31 -218 -22 -227 7 -7 207 -122 446 -255 238 -134 433 -247 433 -251 -1
-4 -727 -593 -1614 -1308 -887 -716 -1617 -1305 -1622 -1309 -4 -5 68 -209
162 -457 93 -246 172 -457 176 -469 6 -20 1 -19 -246 17 -139 20 -548 80 -908
133 -360 53 -898 132 -1195 175 -297 44 -541 78 -542 77 -2 -1 15 -405 37
-896 22 -492 40 -902 40 -912 0 -17 -29 -18 -576 -18 l-577 0 6 63 c4 34 34
379 67 767 33 388 67 775 74 860 8 85 12 157 10 159 -3 3 -721 -88 -2274 -289
-371 -48 -676 -86 -678 -85 -1 1 90 202 203 446 l204 444 -22 22 c-19 18 -586
480 -2844 2316 -211 171 -379 315 -375 319 4 4 198 95 432 204 234 108 427
198 429 200 3 3 -110 590 -315 1634 -50 257 -59 310 -51 310 2 0 192 -18 423
-40 230 -22 653 -63 939 -90 286 -27 539 -52 561 -55 l41 -6 299 371 c164 203
301 370 304 369 3 0 334 -366 735 -813 402 -447 731 -810 733 -806 1 3 -48
219 -108 480 -61 261 -124 531 -140 600 -16 69 -60 260 -99 425 -114 490 -313
1346 -426 1829 -30 131 -55 244 -55 251 0 9 16 8 63 -6 271 -82 1223 -359
1231 -359 6 0 290 448 631 995 341 547 623 991 626 987 4 -4 262 -437 574
-962z"/>
<path d="M5805 10409 c-523 -843 -591 -950 -610 -945 -12 3 -282 82 -600 176
-318 93 -580 169 -581 167 -1 -1 11 -58 28 -127 16 -69 61 -259 99 -422 38
-164 101 -434 140 -600 38 -167 99 -427 134 -578 36 -151 161 -689 279 -1195
118 -506 214 -921 212 -922 -2 -2 -380 415 -840 927 -460 511 -840 930 -844
929 -4 0 -128 -153 -277 -340 l-270 -339 -45 5 c-283 30 -1833 175 -1837 172
-3 -4 72 -412 107 -577 5 -25 32 -164 60 -310 28 -146 55 -285 60 -310 5 -25
32 -164 60 -310 28 -146 55 -287 61 -313 7 -28 8 -52 3 -57 -5 -4 -181 -88
-391 -186 -211 -98 -383 -180 -382 -183 0 -3 713 -586 1585 -1296 871 -709
1584 -1292 1584 -1296 0 -4 -79 -179 -176 -389 -96 -210 -173 -384 -171 -386
2 -3 323 36 713 86 390 50 993 127 1339 171 347 44 674 86 728 93 l97 13 0
-33 c0 -18 -34 -422 -75 -896 -40 -475 -75 -880 -77 -901 l-3 -38 450 1 c247
0 450 2 452 3 1 2 -15 410 -37 908 -22 497 -40 910 -40 918 0 17 -161 39 1469
-200 750 -110 1365 -198 1368 -195 2 2 -66 190 -152 417 -85 227 -152 416
-148 420 8 6 676 545 2403 1937 399 322 735 594 747 606 l23 21 -410 229
c-362 202 -409 231 -405 250 2 11 29 179 60 371 103 657 215 1360 220 1389 l5
29 -57 -7 c-32 -3 -220 -20 -418 -36 -198 -17 -589 -50 -870 -74 -313 -27
-514 -40 -521 -35 -6 5 -121 153 -255 329 -229 300 -245 319 -260 302 -9 -9
-385 -415 -834 -902 -450 -487 -822 -886 -826 -888 -4 -2 -4 12 1 30 5 18 79
326 166 683 86 358 268 1114 405 1680 350 1447 340 1406 337 1419 -2 8 -207
-37 -633 -140 -346 -84 -633 -153 -636 -154 -4 0 -255 416 -559 925 -304 509
-555 925 -559 925 -3 0 -271 -428 -596 -951z"/>
</g>
</svg>
